<svg width="60" height="60" viewBox="0 0 60 60" fill="none" xmlns="http://www.w3.org/2000/svg">
<circle cx="30" cy="30" r="30" fill="#FFA500"/>
<path fill-rule="evenodd" clip-rule="evenodd" d="M30 30.5458C25.351 30.5458 21.4898 26.7924 21.4898 22.3495C21.4898 17.7534 25.351 14 30 14C34.8068 14 38.5102 17.7534 38.5102 22.3495C38.5102 26.7924 34.8068 30.5458 30 30.5458ZM30 18.8259C28.0301 18.8259 26.5329 20.4345 26.5329 22.3495C26.5329 24.2645 28.0301 25.7199 30 25.7199C32.0488 25.7199 33.4672 24.2645 33.4672 22.3495C33.4672 20.4345 32.0488 18.8259 30 18.8259ZM33.3884 37.3633L38.1951 41.8828C39.1406 42.8785 39.1406 44.334 38.1951 45.2532C37.1707 46.2489 35.5948 46.2489 34.8068 45.2532L30 40.6572L25.351 45.2532C24.8782 45.7128 24.2478 45.9425 23.5386 45.9425C22.987 45.9425 22.3566 45.7128 21.805 45.2532C20.8595 44.334 20.8595 42.8785 21.805 41.8828L26.6905 37.3633C24.8782 36.8271 23.2234 36.1376 21.6474 35.2184C20.4655 34.6056 20.2291 33.0736 20.8595 31.9246C21.6474 30.7756 23.0658 30.4692 24.3266 31.2352C27.7937 33.3034 32.2064 33.3034 35.6735 31.2352C36.9343 30.4692 38.4315 30.7756 39.1406 31.9246C39.8498 33.0736 39.5346 34.6056 38.4315 35.2184C36.9343 36.1376 35.2008 36.8271 33.3884 37.3633Z" fill="white"/>
</svg>
